<?xml version="1.0" standalone="no"?><!DOCTYPE svg PUBLIC "-//W3C//DTD SVG 1.1//EN" "http://www.w3.org/Graphics/SVG/1.1/DTD/svg11.dtd"><svg class="icon" height="512" viewBox="0 0 1024 1024" version="1.1" xmlns="http://www.w3.org/2000/svg"><path d="M960.753493 356.09344l-22.993493 0-106.10688-270.81984c-11.626667-31.560107-49.419947-48.886613-82.10688-36.619947L41.370027 324.02688c-16.069973 5.85344-29.1968 18.153387-36.046507 33.78688-6.856533 15.71328-7.06688 32.89344-0.753493 48.173227l131.96672 336.86016 0 172.64c0 35.186773 28.33664 63.819947 63.2 63.819947l761.016747 0c34.873173 0 63.246507-28.633173 63.246507-63.819947L1024 419.946667C1023.96672 384.713387 995.593387 356.09344 960.753493 356.09344zM899.22688 356.09344l-187.913387 0 163.113387-63.45344L899.22688 356.09344zM114.546773 588.279893l21.989973-8.54656 0 64.680107L114.546773 588.279893zM136.536747 419.946667l0 9.53344-73.106773 28.38016L37.856853 392.57344c-2.68672-6.49344-2.583467-13.66656 0.326827-20.266667 3.010133-6.81344 8.456533-11.979947 15.813547-14.666667l708.36992-275.446613c3.153493-1.14688 6.480213-1.79328 9.846613-1.79328 11.593387 0 21.926827 6.960213 25.92 17.680213l25.37984 64.820053L325.536853 356.166827 199.736747 356.166827C164.873387 356.09344 136.536747 384.713387 136.536747 419.946667zM988.09984 915.48672c0 15.16672-12.57984 27.953493-27.380053 27.953493L199.736747 943.440213c-14.816853 0-27.330133-12.786773-27.330133-27.953493L172.406613 419.946667c0-15.179947 12.51328-27.946667 27.330133-27.946667l761.016747 0c14.81984 0 27.380053 12.76672 27.380053 27.946667l0 495.540053L988.09984 915.48672zM908.560213 837.85984 268.323413 837.85984c-9.90336 0-17.933227 8.040107-17.933227 17.933227 0 9.913173 8.029867 17.940053 17.933227 17.940053l640.27648 0c9.893547 0 17.933227-8.02688 17.933227-17.940053C926.533547 845.899947 918.49344 837.85984 908.560213 837.85984zM268.323413 516.400213l280.4032 0c9.893547 0 17.933227-8.040107 17.933227-17.933227 0-9.906773-8.040107-17.940053-17.933227-17.940053L268.323413 480.526933c-9.90336 0-17.933227 8.03328-17.933227 17.940053C250.390187 508.360107 258.38336 516.400213 268.323413 516.400213zM319.93984 724.053333 404.16 724.053333c38.35648 0 69.513387-31.13984 69.513387-69.413547 0-38.26688-31.15648-69.40672-69.513387-69.40672L319.93984 585.233067c-38.35008 0-69.55008 31.13984-69.55008 69.40672C250.390187 692.913493 281.590187 724.053333 319.93984 724.053333z" /></svg>